<?xml version="1.0" standalone="no"?>
<!DOCTYPE svg PUBLIC "-//W3C//DTD SVG 20010904//EN"
 "http://www.w3.org/TR/2001/REC-SVG-20010904/DTD/svg10.dtd">
<svg version="1.0" xmlns="http://www.w3.org/2000/svg"
 width="1437.000000pt" height="342.000000pt" viewBox="0 0 1437.000000 342.000000"
 preserveAspectRatio="xMidYMid meet">
<metadata>
Created by potrace 1.16, written by Peter Selinger 2001-2019
</metadata>
<g transform="translate(0.000000,342.000000) scale(0.100000,-0.100000)"
fill="#000000" stroke="none">
<path d="M0 3304 l0 -116 27 7 c81 22 499 -13 791 -65 747 -135 1351 -359
2742 -1020 676 -321 1003 -472 1360 -627 1989 -864 3811 -1289 6060 -1413 546
-30 1451 -38 2000 -16 608 24 1318 67 1341 82 5 3 9 11 9 18 0 8 9 16 20 19
20 5 20 14 20 1626 l0 1621 -7185 0 -7185 0 0 -116z"/>
</g>
</svg>
